<?xml version="1.0" standalone="no"?>
<!DOCTYPE svg PUBLIC "-//W3C//DTD SVG 20010904//EN"
 "http://www.w3.org/TR/2001/REC-SVG-20010904/DTD/svg10.dtd">
<svg version="1.0" xmlns="http://www.w3.org/2000/svg"
 width="225.000000pt" height="256.000000pt" viewBox="0 0 225.000000 256.000000"
 preserveAspectRatio="xMidYMid meet">

<g transform="translate(0.000000,256.000000) scale(0.100000,-0.100000)"
fill="#000000" stroke="none">
<path d="M672 2406 c-48 -22 -59 -59 -33 -120 11 -27 19 -51 17 -53 -2 -2 -34
12 -72 31 -168 83 -306 88 -359 13 -39 -56 -10 -106 151 -262 l114 -110 0 -85
c0 -97 -17 -202 -54 -342 -37 -139 -56 -259 -56 -352 0 -85 22 -192 44 -214
10 -10 11 -1 8 50 -3 34 1 107 9 163 7 55 13 139 13 188 0 48 1 87 2 87 10 0
57 -122 69 -180 19 -94 69 -197 135 -278 55 -67 58 -80 7 -32 -18 17 -47 40
-64 53 -18 12 -38 36 -44 52 -25 68 -30 76 -40 69 -7 -4 -9 -27 -5 -64 4 -34
2 -60 -3 -62 -12 -4 6 -169 19 -182 6 -6 10 -18 10 -28 0 -25 27 -66 75 -111
86 -83 215 -137 325 -137 l69 0 27 -58 c14 -31 29 -64 33 -71 4 -8 20 -18 34
-22 24 -6 27 -4 27 17 0 53 68 134 111 134 11 0 30 5 42 11 30 15 107 90 107
104 0 36 147 134 233 156 44 11 51 17 92 80 62 96 75 146 64 250 -10 99 -50
311 -80 424 -11 44 -24 96 -29 115 -13 59 -28 88 -49 95 -15 4 -21 15 -21 35
0 63 319 330 395 330 28 0 16 28 -17 39 -18 7 -66 14 -106 18 -40 3 -75 10
-78 15 -3 5 13 30 35 57 48 57 51 73 16 89 -37 17 -89 14 -170 -8 -98 -27
-106 -27 -99 10 8 37 -7 57 -61 81 -88 40 -245 18 -400 -56 -128 -61 -122 -60
-165 -21 -92 83 -203 116 -278 82z"/>
<path d="M386 830 c11 -10 29 -21 42 -25 21 -6 23 -4 20 17 -2 19 -9 23 -42
25 -37 1 -38 1 -20 -17z"/>
<path d="M1107 279 c-21 -12 -23 -49 -2 -49 8 0 17 11 21 25 8 32 4 36 -19 24z"/>
</g>
</svg>
